# xmcd
#
# Track frame offsets:
#	150
#	104235
#	122760
#	138525
#	154915
#	168025
#	186635
#
# Disc length: 2666 seconds
#
# Revision: 0
# Processed by: cddbd v1.4PL0 Copyright (c) Steve Scherf et al.
# Submitted via: dBpowerAMP V4.0
#
DISCID=660a6807
DTITLE=Coletâneas - Country Poeira
DYEAR=2000
DGENRE=Country
TTITLE0=Rollyn My Sweet Baby's Arm - Hill Billy Bandit's Band
TTITLE1=Tell me Whay - K. Bonoff
TTITLE2=Achy Breaky Heart - Lui Carter
TTITLE3=Singing the Blues - Jim Grass
TTITLE4=Act Naturally - Johnny Russel/V. Morrison
TTITLE5=You and I - Emmily Adams/ John Boyle
TTITLE6=As long as you belong to me - Marcia Hary
EXTD=Marcelo Sussermann
EXTT0=
EXTT1=
EXTT2=
EXTT3=
EXTT4=
EXTT5=
EXTT6=
PLAYORDER=
